HIERARCHY
ROOT hip
{
  OFFSET 0 0 0
  CHANNELS 6 Xposition Yposition Zposition Zrotation Yrotation Xrotation
  JOINT abdomen
  {
    OFFSET 0 20.6881 -0.73152
    CHANNELS 3 Zrotation Xrotation Yrotation
    JOINT chest
    {
      OFFSET 0 11.7043 -0.48768
      CHANNELS 3 Zrotation Xrotation Yrotation
      JOINT neck
      {
        OFFSET 0 22.1894 -2.19456
        CHANNELS 3 Zrotation Xrotation Yrotation
        JOINT head
        {
          OFFSET -0.24384 7.07133 1.2192
          CHANNELS 3 Zrotation Xrotation Yrotation
          JOINT leftEye
          {
            OFFSET 4.14528 8.04674 8.04672
            CHANNELS 3 Zrotation Xrotation Yrotation
            End Site
            {
              OFFSET 1 0 0
            }
          }
          JOINT rightEye
          {
            OFFSET -3.6576 8.04674 8.04672
            CHANNELS 3 Zrotation Xrotation Yrotation
            End Site
            {
              OFFSET 1 0 0
            }
          }
        }
      }
      JOINT rCollar
      {
        OFFSET -2.68224 19.2634 -4.8768
        CHANNELS 3 Zrotation Xrotation Yrotation
        JOINT rShldr
        {
          OFFSET -8.77824 -1.95073 1.46304
          CHANNELS 3 Zrotation Xrotation Yrotation
          JOINT rForeArm
          {
            OFFSET -28.1742 -1.7115 0.48768
            CHANNELS 3 Zrotation Xrotation Yrotation
            JOINT rHand
            {
              OFFSET -22.5879 0.773209 7.07136
              CHANNELS 3 Zrotation Xrotation Yrotation
              JOINT rThumb1
              {
                OFFSET -1.2192 -0.487915 3.41376
                CHANNELS 3 Zrotation Xrotation Yrotation
                JOINT rThumb2
                {
                  OFFSET -3.37035 -0.52449 3.41376
                  CHANNELS 3 Zrotation Xrotation Yrotation
                  End Site
                  {
                    OFFSET -1.78271 -1.18214 1.43049
                  }
                }
              }
              JOINT rIndex1
              {
                OFFSET -7.75947 0.938293 5.60832
                CHANNELS 3 Zrotation Xrotation Yrotation
                JOINT rIndex2
                {
                  OFFSET -2.54057 -0.884171 1.56538
                  CHANNELS 3 Zrotation Xrotation Yrotation
                  End Site
                  {
                    OFFSET -1.62519 -0.234802 1.16502
                  }
                }
              }
              JOINT rMid1
              {
                OFFSET -8.24714 1.18213 3.41376
                CHANNELS 3 Zrotation Xrotation Yrotation
                JOINT rMid2
                {
                  OFFSET -3.10165 -0.590103 1.0647
                  CHANNELS 3 Zrotation Xrotation Yrotation
                  End Site
                  {
                    OFFSET -2.48547 -0.328903 0.83742
                  }
                }
              }
              JOINT rRing1
              {
                OFFSET -8.82822 0.546677 1.51678
                CHANNELS 3 Zrotation Xrotation Yrotation
                JOINT rRing2
                {
                  OFFSET -2.60934 -0.819778 -0.0198488
                  CHANNELS 3 Zrotation Xrotation Yrotation
                  End Site
                  {
                    OFFSET -2.33842 -0.294052 0.168128
                  }
                }
              }
              JOINT rPinky1
              {
                OFFSET -8.27202 -0.0477905 -0.4584
                CHANNELS 3 Zrotation Xrotation Yrotation
                JOINT rPinky2
                {
                  OFFSET -1.82734 -0.647385 -0.700984
                  CHANNELS 3 Zrotation Xrotation Yrotation
                  End Site
                  {
                    OFFSET -1.69225 -0.51767 -0.607171
                  }
                }
              }
            }
          }
        }
      }
      JOINT lCollar
      {
        OFFSET 2.68224 19.2634 -4.8768
        CHANNELS 3 Zrotation Xrotation Yrotation
        JOINT lShldr
        {
          OFFSET 8.77824 -1.95073 1.46304
          CHANNELS 3 Zrotation Xrotation Yrotation
          JOINT lForeArm
          {
            OFFSET 28.1742 -1.7115 0.48768
            CHANNELS 3 Zrotation Xrotation Yrotation
            JOINT lHand
            {
              OFFSET 22.5879 0.773209 7.07136
              CHANNELS 3 Zrotation Xrotation Yrotation
              JOINT lThumb1
              {
                OFFSET 1.2192 -0.487915 3.41376
                CHANNELS 3 Zrotation Xrotation Yrotation
                JOINT lThumb2
                {
                  OFFSET 3.37035 -0.52449 3.41376
                  CHANNELS 3 Zrotation Xrotation Yrotation
                  End Site
                  {
                    OFFSET 1.78271 -1.18214 1.43049
                  }
                }
              }
              JOINT lIndex1
              {
                OFFSET 7.75947 0.938293 5.60832
                CHANNELS 3 Zrotation Xrotation Yrotation
                JOINT lIndex2
                {
                  OFFSET 2.54057 -0.884171 1.56538
                  CHANNELS 3 Zrotation Xrotation Yrotation
                  End Site
                  {
                    OFFSET 1.62519 -0.234802 1.16502
                  }
                }
              }
              JOINT lMid1
              {
                OFFSET 8.24714 1.18213 3.41376
                CHANNELS 3 Zrotation Xrotation Yrotation
                JOINT lMid2
                {
                  OFFSET 3.10165 -0.590103 1.0647
                  CHANNELS 3 Zrotation Xrotation Yrotation
                  End Site
                  {
                    OFFSET 2.48547 -0.328903 0.83742
                  }
                }
              }
              JOINT lRing1
              {
                OFFSET 8.82822 0.546677 1.51678
                CHANNELS 3 Zrotation Xrotation Yrotation
                JOINT lRing2
                {
                  OFFSET 2.60934 -0.819778 -0.0198488
                  CHANNELS 3 Zrotation Xrotation Yrotation
                  End Site
                  {
                    OFFSET 2.33842 -0.294052 0.168128
                  }
                }
              }
              JOINT lPinky1
              {
                OFFSET 8.27202 -0.0477905 -0.4584
                CHANNELS 3 Zrotation Xrotation Yrotation
                JOINT lPinky2
                {
                  OFFSET 1.82734 -0.647385 -0.700984
                  CHANNELS 3 Zrotation Xrotation Yrotation
                  End Site
                  {
                    OFFSET 1.69225 -0.51767 -0.607171
                  }
                }
              }
            }
          }
        }
      }
    }
  }
  JOINT rButtock
  {
    OFFSET -8.77824 4.35084 1.2192
    CHANNELS 3 Zrotation Xrotation Yrotation
    JOINT rThigh
    {
      OFFSET 0 -1.70687 -2.19456
      CHANNELS 3 Zrotation Xrotation Yrotation
      JOINT rShin
      {
        OFFSET 0 -36.8199 0.73152
        CHANNELS 3 Zrotation Xrotation Yrotation
        JOINT rFoot
        {
          OFFSET 0.73152 -45.1104 -5.12064
          CHANNELS 3 Zrotation Xrotation Yrotation
          End Site
          {
            OFFSET -1.1221 -3.69964 12.103
          }
        }
      }
    }
  }
  JOINT lButtock
  {
    OFFSET 8.77824 4.35084 1.2192
    CHANNELS 3 Zrotation Xrotation Yrotation
    JOINT lThigh
    {
      OFFSET 0 -1.70687 -2.19456
      CHANNELS 3 Zrotation Xrotation Yrotation
      JOINT lShin
      {
        OFFSET 0 -36.8199 0.73152
        CHANNELS 3 Zrotation Xrotation Yrotation
        JOINT lFoot
        {
          OFFSET -0.73152 -45.1104 -5.12064
          CHANNELS 3 Zrotation Xrotation Yrotation
          End Site
          {
            OFFSET 1.1221 -3.69964 12.103
          }
        }
      }
    }
  }
}
MOTION
Frames:	8
Frame Time:	0.03333
0.0 0.0 0.0 0.0 0.0 0.0 0.0 0.0 0.0 0.0 0.0 0.0 0.0 0.0 0.0 0.0 0.0 0.0 0.0 0.0 0.0 0.0 0.0 0.0 0.0 0.0 0.0 0.0 0.0 0.0 0.0 0.0 0.0 0.0 0.0 0.0 0.0 0.0 0.0 0.0 0.0 0.0 0.0 0.0 0.0 0.0 0.0 0.0 0.0 0.0 0.0 0.0 0.0 0.0 0.0 0.0 0.0 0.0 0.0 0.0 0.0 0.0 0.0 0.0 0.0 0.0 0.0 0.0 0.0 0.0 0.0 0.0 0.0 0.0 0.0 0.0 0.0 0.0 0.0 0.0 0.0 0.0 0.0 0.0 0.0 0.0 0.0 0.0 0.0 0.0 0.0 0.0 0.0 0.0 0.0 0.0 0.0 0.0 0.0 0.0 0.0 0.0 0.0 0.0 0.0 0.0 0.0 0.0 0.0 0.0 0.0 0.0 0.0 0.0 0.0 0.0 0.0 0.0 0.0 0.0 0.0 0.0 0.0 0.0 0.0 0.0 0.0 0.0 0.0 0.0 0.0 0.0
-0.0456 40.9083 0.0487 -11.396514 69.200824 -0.907059 -0.222215 9.59838 -174.903864 3.350286 9.253098 -164.174195 -0.230497 34.692478 -165.279126 5.083759 40.197525 -157.182192 0.000217 -0.0 -0.00314 0.000217 -0.0 -0.00314 -159.220812 -48.724875 170.568189 -169.53587 -21.711065 -138.799055 -41.868711 -53.578503 78.747179 1.76604 2.834695 1.553164 81.971461 -50.090778 32.723685 -159.610569 -31.201628 128.704346 174.380462 -63.059586 113.272236 179.893859 -49.33704 109.881783 -160.674854 -6.667639 143.244887 -13.648633 36.285853 11.087736 -0.020261 -1.724547 -0.540653 -61.239056 -86.799276 -82.926841 -124.849451 -29.037829 -122.621239 -160.573256 54.423478 -147.319972 155.417208 -2.951489 -161.718393 60.301623 -72.002424 31.085019 168.955105 -28.224502 66.218392 7.714571 -22.352932 5.738573 -2.016965 -2.000135 0.275551 -63.253318 -79.761518 3.230208 140.683589 1.505825 -116.183657 63.532291 56.81161 -45.597576 -14.568766 -44.052726 2.825516 -3.024948 0.168723 -0.059507 70.380072 -72.129144 87.280624 149.805627 -28.013763 179.820951 157.333985 57.246748 150.507969 150.725152 19.162176 143.631094 8.6e-05 0.000744 -0.000111 -82.811939 -36.460649 8.866833 110.580332 22.74072 -174.898843 61.130326 45.370637 50.15388 179.975811 75.749356 0.01655 -140.470324 -22.679105 134.492025 134.422477 -53.946169 41.880859 -34.361526 3.500282 -102.580224
-0.066 40.708 0.0739 -11.730055 69.324198 -1.144459 -0.214137 14.386103 0.861815 -2.6112 -14.280298 19.792043 -9.376088 20.518948 -51.867084 29.582474 -3.649209 92.747419 -0.000723 -0.0 0.000963 0.004967 0.0 0.00128 -0.165173 0.97907 0.220033 -117.117344 -13.99002 157.739629 -7.892743 33.72988 -140.683887 156.296603 -40.270466 137.094839 116.309202 -50.009733 56.953861 -15.489477 -60.080057 -31.824801 -2.685562 4.22684 1.584346 -151.547437 1.395212 109.049652 23.904881 -61.333634 1.4006 -88.799182 63.973808 80.341658 -145.119432 0.310313 -179.225295 -153.650793 -16.733747 -176.83874 -156.859484 55.540759 -150.335217 72.186042 84.461363 -34.749582 159.219532 -48.028204 -170.416796 2.241495 17.547106 32.622204 13.374085 78.275743 -127.636683 9.231418 -16.040251 4.945026 -0.567789 -0.561428 0.085338 169.270698 -76.102083 -111.292421 -0.184663 -0.300545 0.103288 13.180215 28.854002 -10.477129 0.05822 0.167783 -0.032065 -11.366786 -24.937937 1.564229 145.124019 1.974259 179.749208 -11.922788 36.626256 4.842125 17.348623 -30.441721 16.587574 147.318068 13.528271 143.944663 -0.00672 -0.001128 -0.00672 -83.142664 -36.474667 17.517789 110.483747 1.236871 12.148474 -99.370772 -56.294228 -166.34592 -0.004093 0.000228 -0.002047 107.291277 -49.935454 22.136399 -120.953991 30.36362 -125.820103 89.551969 64.570564 153.328462
-0.0862 40.577600000000004 0.0751 -12.175531 69.331414 -1.525489 0.061822 9.644805 178.604958 2.189349 9.64509 -157.8419 -2.354121 34.447627 -154.210816 11.706493 39.271527 -170.030083 -0.000292 0.0 -0.002272 -0.000292 0.0 -0.002272 -151.981378 14.727741 157.381809 -28.420963 -77.805141 10.839881 152.015808 70.190947 60.632575 168.006879 -16.102618 144.831133 71.831214 -48.263708 25.791669 -160.548443 -63.790627 143.713277 -14.229073 19.203423 9.559261 0.518609 11.942032 1.878594 -6.648494 17.108441 4.326267 -163.192314 -4.72236 143.337028 -145.119118 0.184993 -179.187414 -148.07812 -43.197415 -170.546689 8.580775 27.211346 7.536971 -154.590255 35.794315 -148.063494 152.12877 14.113133 -157.556588 -148.81887 -13.272309 -173.043388 0.174811 -43.410113 -109.134489 8.865846 -16.562962 4.990681 173.581791 -11.25364 -89.900335 -104.501654 -65.934018 -78.718332 13.870677 18.815509 -9.28966 162.605337 -11.947801 -110.343175 -89.034474 -81.394407 -59.760257 163.198704 -3.917546 -143.059531 145.119851 0.309886 179.226161 149.42862 -38.763916 171.997048 140.003946 -2.493721 137.11752 -1.489922 -2.726784 2.818271 0.011979 0.00111 0.011979 -82.563313 -38.668807 -170.863142 -110.980643 -8.482391 -174.643644 -42.788318 -19.781956 -109.323034 0.0 -0.001567 0.001567 107.973341 -49.994682 22.16371 -115.404823 20.278466 -14.157666 -167.883067 48.116636 -103.53156
-0.091 40.431400000000004 0.0839 -12.274201 69.344357 -1.539567 -0.068136 14.468118 8.702314 -4.412373 -13.884293 11.646024 8.055199 31.878465 144.991726 -21.601528 31.675142 -101.621216 -0.001841 -0.0 0.001455 -0.002134 0.0 -0.002067 -80.166132 68.371797 83.260838 72.588644 -37.148963 86.907273 -168.241774 -15.915186 33.62478 156.815502 -39.502105 137.490046 -14.793766 13.633337 3.989405 38.000775 -44.956525 -7.934193 -1.161099 1.861098 0.669042 74.381593 -57.204181 25.905442 -161.153764 -8.160485 143.465553 2.862476 1.018518 0.498703 -114.670602 66.732133 135.093339 5.844564 29.79299 -1.853886 19.282769 66.825412 13.09134 -148.743772 12.821382 -143.25877 -3.543144 -62.05304 13.038328 122.513932 -18.236679 155.846549 -1.020371 -4.480027 144.939909 168.28161 5.591476 -141.040618 69.523247 38.077963 -36.391046 149.736529 -35.324751 -85.345883 152.105111 -18.555783 -121.369732 -12.62599 -2.569149 10.182714 0.056465 0.168102 -0.031751 17.946787 42.273571 -14.398345 70.378966 -72.130436 87.279817 149.93527 -26.428762 -179.921434 8.923435 -18.828343 8.430456 22.482153 -40.192871 23.611627 179.68841 75.749621 0.240157 129.330702 -3.083771 -87.476056 -116.645571 -9.301981 -56.846254 -141.897159 37.459625 -123.233887 -179.951354 75.749776 -0.040025 -140.221911 -21.915933 18.101467 133.928405 59.983955 144.745049 178.560266 -26.072057 -95.523639
-0.1203 40.293800000000005 0.0719 -12.357788 69.281366 -1.6317 0.44415 9.788326 -180.0 2.603842 9.688652 -159.246042 -4.375775 15.610107 -11.899155 14.837612 -18.597827 52.933462 -0.001654 0.0 -0.001387 0.004038 -0.0 -0.001114 -40.826815 -86.096756 -62.370828 70.534554 42.367688 -53.119004 52.305741 69.052195 69.046205 -20.888495 56.264748 9.439005 -95.361317 37.750255 54.682229 25.376219 -30.873496 23.283443 -18.648683 23.635189 12.969392 -174.354681 -27.29456 108.96589 -8.417103 20.880556 5.643979 173.364388 -58.974965 137.13758 -0.015371 -1.322863 -0.417741 -147.509754 46.79054 162.204057 -6.122015 -13.785466 -5.752927 -158.321181 52.452233 -149.892627 129.706455 55.102297 -133.553173 55.987567 27.276987 -45.457807 163.213819 38.150771 77.72139 6.730228 -24.819934 5.918218 171.653302 -9.336464 -89.948662 -113.153315 -62.627542 -83.676583 -167.120849 -67.039599 -108.172138 82.990075 54.727977 -68.965669 125.644479 49.840777 -115.27537 113.943524 59.047746 -104.483372 0.000422 -0.06094 0.018495 149.976079 38.866929 -164.835533 152.50316 38.522209 147.801012 26.029153 -40.247878 26.83039 0.000151 0.000238 -0.000194 -81.624904 -37.60597 -77.872828 -132.323091 70.589638 134.221813 163.2315 -11.496897 18.794284 -179.996669 75.749404 -0.002279 -140.208863 -22.155617 18.275739 121.62281 49.029444 -49.289371 -11.616959 -68.553567 -84.661763
-0.13290000000000002 40.1644 0.06939999999999999 -12.201254 69.141307 -1.354345 0.288441 9.767534 173.815905 1.281608 9.889592 -152.933769 -10.604018 27.380487 -91.688707 33.126895 16.895983 127.689916 -0.001753 -0.0 0.000701 -0.001753 -0.0 0.000701 -150.383408 20.793704 155.52142 -45.644199 13.633463 10.97632 -153.311595 -11.890719 -60.028633 0.520733 6.798027 1.323596 82.304845 -50.136683 32.955143 -20.806366 -18.536862 -20.949281 5.919817 -10.174893 -2.969754 -165.326559 -20.768181 109.852656 -160.826706 -7.141362 143.317693 3.156344 0.178649 0.383161 -145.118317 0.310639 -179.224639 12.109965 45.380918 -3.77663 5.003127 14.691965 4.515668 -147.190198 10.262997 -143.312276 33.835674 -85.665803 55.25328 106.51506 -42.249473 127.889702 174.548003 13.81534 70.230001 9.495735 -15.424289 4.868661 164.698778 -2.371543 -89.586421 125.859024 9.149326 -60.077502 145.906359 -7.259307 -118.950884 62.847017 57.150473 -45.756667 -0.541754 -1.58984 0.294916 25.393227 49.363743 -20.849067 -0.000512 0.06374 -0.020262 -10.322517 0.0394 0.061974 1.203515 -3.047523 1.116168 147.093737 11.075532 143.554727 179.994217 75.749403 0.003957 127.315963 -3.443459 83.660091 110.89294 9.044679 5.318084 174.488915 27.0777 103.623097 -179.979708 75.748938 -0.013883 -139.668257 -22.353767 0.0 137.945916 65.689512 -92.872165 149.677818 -39.859373 43.307326
-0.1303 40.0492 0.07050000000000001 -12.530269 69.046936 -1.61195 0.716426 9.725082 -180.0 2.632289 9.656191 -159.282544 10.651582 28.540302 121.277625 -27.910466 21.844436 -78.763184 -0.002002 -0.0 0.003423 0.003691 0.0 0.003694 -159.219887 -48.724833 170.568697 -66.357819 -43.937324 -63.746397 147.408327 -64.724222 -98.932717 -18.093637 52.659771 7.474142 -168.112024 -5.788783 89.869465 33.262701 -63.658837 28.036645 -166.823629 -43.973396 122.061208 -60.830754 57.049855 47.33732 -158.522105 -0.19227 142.144572 -20.151372 44.155516 16.487054 0.00497 1.771412 0.556309 -155.55189 -1.03303 171.970514 -3.811898 -9.064671 -3.559601 -165.09551 69.58878 -149.045745 5.825249 24.937067 -6.991025 -71.830265 -28.792946 -40.542437 -20.174163 -0.558418 -115.401215 16.403607 6.63441 0.586429 93.743001 37.963852 -53.54909 -2.917999 -19.924523 -25.269288 46.207422 39.65301 -36.318798 -5.930268 1.233328 2.369771 -0.048091 -0.138588 0.025822 144.487439 37.266946 -131.638654 0.020702 -1.725717 0.541734 155.26916 -1.041456 -171.977501 144.261544 9.236853 141.010795 136.738098 -14.194205 133.223639 2.1e-05 0.001329 -2.7e-05 -83.613476 -37.214602 8.959041 114.34738 21.36802 162.067665 37.177687 41.166981 83.793257 0.008849 -0.000489 0.006637 110.960734 -51.728319 -156.969636 118.891917 -30.676545 13.572792 -179.934865 1.62261 85.85561
